<?xml version="1.0" standalone="no"?>
<!DOCTYPE svg PUBLIC "-//W3C//DTD SVG 20010904//EN"
 "http://www.w3.org/TR/2001/REC-SVG-20010904/DTD/svg10.dtd">
<svg version="1.0" xmlns="http://www.w3.org/2000/svg"
 width="4500.000000pt" height="5625.000000pt" viewBox="0 0 4500.000000 5625.000000"
 preserveAspectRatio="xMidYMid meet">

<g transform="translate(0.000000,5625.000000) scale(0.100000,-0.100000)"
fill="#000000" stroke="none">
<path d="M30895 43444 c-374 -39 -752 -180 -1136 -422 -69 -44 -150 -92 -180
-107 -30 -15 -79 -49 -109 -75 -30 -26 -116 -94 -190 -152 -354 -277 -612
-603 -834 -1058 -281 -572 -449 -1269 -506 -2095 -7 -98 -10 -759 -8 -1900 4
-2367 2 -2619 -23 -3640 -10 -418 -10 -558 0 -720 10 -158 10 -346 1 -900 -10
-629 -9 -713 5 -825 13 -98 18 -285 25 -874 10 -790 11 -809 57 -877 20 -30
238 -241 623 -603 146 -137 315 -300 375 -362 61 -61 125 -120 144 -129 l34
-17 -8 3639 c-8 4203 -12 5281 -23 5953 -20 1305 39 2043 224 2785 67 266 106
375 220 604 125 252 183 348 393 656 150 218 178 253 310 386 80 81 191 193
246 250 73 76 149 139 280 234 207 149 315 233 315 246 0 5 -11 9 -24 9 -13 0
-36 2 -52 4 -16 2 -87 -2 -159 -10z"/>
<path d="M14560 43398 c25 -22 178 -148 340 -278 298 -240 357 -295 532 -497
158 -183 326 -417 441 -614 137 -235 315 -635 400 -904 83 -260 139 -522 186
-870 59 -434 63 -614 43 -1910 -21 -1380 -27 -4850 -12 -6620 11 -1241 11
-1653 1 -2125 -7 -322 -17 -618 -22 -659 -15 -125 15 -181 96 -181 30 0 46 10
103 63 37 35 135 116 217 182 183 145 274 231 374 355 108 134 172 235 251
395 108 220 173 436 216 725 23 146 25 741 6 1245 -18 476 -19 1385 -3 3140
15 1698 11 4556 -7 4665 -6 36 -20 160 -32 275 -49 488 -128 889 -245 1253
-57 177 -187 491 -262 632 -172 323 -387 616 -623 849 -249 245 -411 362 -700
504 -102 50 -221 113 -265 141 -283 176 -641 277 -980 276 l-100 -1 45 -41z"/>
<path d="M16870 42790 c0 -16 145 -163 249 -254 53 -45 151 -124 219 -175 142
-107 155 -122 456 -521 303 -402 411 -566 557 -845 131 -251 204 -439 280
-717 22 -83 54 -185 71 -227 46 -116 57 -157 68 -266 8 -70 12 -1417 13 -4450
l2 -4350 -22 -119 c-13 -65 -23 -134 -23 -152 0 -51 29 -101 68 -120 69 -33
139 6 237 131 59 75 353 371 752 757 185 180 212 214 240 304 17 57 18 210 18
3624 0 3682 0 3665 -39 3810 -8 30 -24 138 -36 240 -36 310 -67 459 -150 711
-147 449 -379 868 -708 1281 -164 206 -555 592 -784 775 -213 169 -297 223
-459 294 -63 27 -181 83 -264 124 -166 82 -271 116 -428 139 -119 18 -317 22
-317 6z"/>
<path d="M28485 42774 c-305 -46 -705 -200 -935 -357 -61 -43 -507 -386 -600
-463 -128 -105 -322 -322 -522 -581 -208 -270 -247 -327 -361 -538 -216 -399
-358 -824 -427 -1275 -34 -218 -50 -435 -60 -790 -5 -190 -13 -364 -16 -386
-6 -44 -16 -1492 -15 -2319 1 -514 8 -2059 16 -3430 l5 -810 31 -62 c87 -172
340 -448 614 -668 194 -156 372 -331 449 -442 66 -95 82 -101 132 -48 42 44
46 71 41 220 -24 600 -27 1573 -17 4375 7 1631 10 3267 9 3635 -3 603 -2 683
15 800 87 626 288 1164 633 1690 209 318 400 550 730 888 262 267 371 388 438
482 66 94 65 95 -8 94 -34 -1 -102 -7 -152 -15z"/>
<path d="M19150 42264 c1 -72 79 -178 211 -283 151 -121 478 -430 595 -562
214 -241 423 -529 556 -764 267 -471 446 -983 533 -1520 59 -364 60 -385 59
-1230 0 -429 -8 -1178 -18 -1665 -27 -1417 -24 -3124 6 -3265 6 -27 22 -72 35
-98 l24 -49 27 18 c42 28 244 206 387 342 178 170 557 564 611 635 83 111 76
-130 75 2547 -2 2378 -5 2586 -37 2795 -72 461 -296 964 -665 1492 -354 507
-745 897 -1201 1199 -240 159 -496 265 -888 366 -150 38 -310 60 -310 42z"/>
<path d="M26169 42225 c-160 -34 -323 -93 -519 -191 -346 -172 -713 -427 -978
-679 -109 -104 -344 -364 -450 -498 -289 -366 -680 -1112 -757 -1445 -36 -153
-77 -510 -88 -767 -12 -290 -12 -342 -12 -2200 1 -726 1 -1520 0 -1765 0 -463
5 -538 45 -696 39 -151 126 -316 224 -423 23 -24 88 -80 145 -125 58 -44 154
-132 215 -196 217 -226 323 -326 409 -384 48 -33 89 -57 92 -55 17 17 23 1030
14 2404 -9 1561 0 3191 21 3445 28 350 127 864 227 1175 113 354 320 784 530
1102 111 167 202 283 368 469 83 91 151 170 153 175 4 11 284 266 386 352 45
38 127 102 183 144 86 62 104 80 113 111 20 74 22 72 -97 71 -73 0 -146 -8
-224 -24z"/>
<path d="M9430 27100 c-207 -16 -473 -87 -676 -181 -114 -52 -318 -173 -419
-249 -401 -300 -722 -740 -900 -1235 -93 -257 -135 -434 -171 -725 -16 -133
-19 -565 -4 -710 113 -1090 782 -2006 1691 -2318 216 -75 453 -112 706 -112
584 0 1162 255 1588 702 298 312 529 712 660 1143 197 646 173 1430 -61 2030
-206 526 -487 912 -878 1207 -472 355 -945 493 -1536 448z m402 -314 c428 -95
791 -527 1015 -1206 127 -386 195 -1009 164 -1500 -26 -392 -66 -648 -151
-942 -55 -193 -115 -341 -210 -520 -87 -162 -141 -243 -251 -373 -283 -336
-690 -457 -1079 -321 -417 146 -780 689 -946 1415 -35 154 -83 536 -95 765
-17 322 7 749 62 1074 89 534 300 1018 568 1304 165 176 346 280 561 322 48 9
295 -3 362 -18z"/>
<path d="M37085 27014 c-473 -7 -925 -14 -1005 -16 l-145 -3 105 -54 c149 -76
258 -150 327 -225 104 -110 94 156 91 -2401 l-3 -2250 -34 -63 c-44 -82 -149
-179 -276 -257 l-98 -60 54 -7 c30 -3 765 -6 1635 -7 l1581 -1 6 93 c4 50 9
259 13 462 l5 370 -93 -180 c-112 -215 -135 -250 -224 -336 -121 -116 -63
-109 -904 -109 l-720 0 2 2303 3 2302 27 46 c54 91 192 204 431 348 48 30 87
55 87 57 0 2 -1 3 -2 3 -2 -1 -390 -8 -863 -15z"/>
<path d="M21100 27012 c-157 -7 -142 -21 110 -107 274 -94 446 -199 501 -307
19 -36 19 -89 19 -2253 0 -1927 -2 -2220 -15 -2251 -41 -99 -256 -254 -513
-370 -64 -28 -89 -44 -80 -50 11 -7 1588 -7 1595 0 2 1 -73 37 -165 80 -93 43
-209 101 -257 129 -95 55 -207 152 -231 199 -20 38 -19 15 -16 2028 l2 1705
56 -95 c31 -52 118 -198 194 -325 297 -498 672 -1134 790 -1340 35 -60 87
-148 115 -195 29 -47 164 -274 300 -505 136 -231 334 -566 440 -745 106 -179
247 -419 314 -535 67 -115 148 -253 180 -305 l58 -95 527 -3 526 -2 0 2430 c0
2112 2 2435 15 2466 39 95 272 279 505 400 l75 39 -535 2 c-294 2 -647 -1
-785 -5 l-250 -7 75 -29 c111 -43 306 -138 379 -186 83 -54 168 -135 194 -185
25 -48 23 191 20 -2390 -3 -1706 -5 -1917 -18 -1898 -8 12 -37 59 -63 105 -47
80 -150 255 -400 678 -64 107 -239 404 -390 660 -443 750 -1060 1791 -1612
2720 -103 173 -216 364 -251 424 -35 59 -68 110 -74 112 -13 4 -1260 10 -1335
6z"/>
<path d="M31975 27010 c-137 -4 -258 -8 -267 -9 -36 -2 -16 -23 50 -53 195
-89 315 -149 359 -178 68 -46 131 -108 156 -155 l22 -40 0 -2235 0 -2235 -21
-40 c-24 -45 -106 -125 -174 -172 -25 -16 -104 -63 -177 -103 -180 -98 -189
-111 -80 -120 34 -3 794 -4 1690 -2 l1627 3 0 312 c-1 496 -18 547 -124 365
-131 -226 -222 -331 -312 -362 -42 -14 -133 -16 -766 -16 l-718 0 0 1110 0
1111 528 -3 527 -3 50 -27 c61 -31 137 -110 167 -172 l22 -46 103 0 103 0 0
405 0 405 -104 0 -103 0 -18 -45 c-21 -56 -102 -147 -164 -183 l-46 -27 -532
-3 -533 -3 0 1111 0 1110 718 0 c638 0 724 -2 766 -16 69 -24 160 -114 253
-249 80 -117 130 -162 154 -138 22 22 28 102 29 399 l0 301 -322 6 c-400 9
-2522 6 -2863 -3z"/>
<path d="M2334 26883 c13 -230 36 -527 44 -558 5 -16 16 -31 25 -33 17 -3 33
19 112 157 63 109 141 193 213 228 l57 28 663 3 662 3 0 -2301 0 -2301 -21
-41 c-29 -56 -93 -118 -235 -225 -121 -91 -164 -133 -164 -159 0 -8 6 -14 13
-15 97 -6 1786 5 1804 12 35 13 20 28 -91 90 -220 124 -339 219 -376 301 -19
42 -20 87 -20 2341 l0 2298 663 -3 662 -3 57 -28 c79 -39 160 -130 237 -266
85 -150 105 -157 121 -40 10 73 26 300 36 502 l7 137 -2238 0 -2237 0 6 -127z"/>
<path d="M12220 27003 l-64 -4 156 -88 c173 -98 204 -118 263 -170 128 -113
178 -208 323 -616 200 -563 602 -1686 694 -1940 50 -137 117 -324 148 -415 32
-91 120 -336 195 -545 75 -209 154 -429 175 -490 21 -60 62 -173 90 -250 28
-77 87 -241 131 -365 43 -124 98 -276 121 -337 l41 -113 382 0 382 0 46 118
c25 64 66 176 90 247 40 117 126 357 537 1510 66 187 153 430 191 540 39 110
126 353 194 540 68 187 135 377 151 423 15 45 29 81 30 79 2 -2 278 -768 614
-1702 336 -935 615 -1712 621 -1727 l11 -28 384 0 c359 0 384 1 384 18 1 9 17
58 36 107 19 50 80 216 134 370 54 154 218 615 365 1025 146 410 297 833 334
940 38 107 117 330 176 495 59 165 129 365 156 444 28 80 106 300 175 490 155
432 191 529 255 711 136 384 220 494 509 671 l105 64 -355 2 c-195 2 -535 -1
-755 -5 -345 -7 -394 -9 -358 -20 24 -7 93 -33 154 -58 274 -110 421 -244 435
-396 6 -58 22 -6 -206 -648 -62 -173 -143 -400 -180 -505 -37 -104 -95 -266
-128 -360 -350 -977 -466 -1305 -657 -1850 -40 -115 -94 -266 -120 -335 -26
-69 -65 -176 -87 -237 -36 -99 -58 -132 -58 -87 0 14 -154 449 -269 759 -33
88 -137 378 -231 645 -94 267 -207 582 -250 700 -107 293 -323 897 -375 1050
-24 69 -104 293 -179 497 -75 205 -136 385 -136 401 0 89 154 223 435 379
l106 58 -53 7 c-69 8 -1971 10 -2031 2 l-47 -7 168 -101 c271 -165 354 -232
402 -326 34 -68 75 -177 197 -525 52 -148 108 -307 125 -352 l31 -82 -46 -118
c-25 -65 -71 -192 -102 -283 -31 -91 -86 -246 -122 -344 -35 -98 -92 -256
-125 -350 -33 -94 -98 -277 -143 -406 -73 -207 -252 -706 -465 -1295 -38 -104
-81 -223 -96 -263 l-27 -74 -89 244 c-49 134 -149 414 -223 623 -75 209 -172
481 -216 605 -413 1148 -593 1652 -688 1920 -62 173 -139 388 -172 476 -65
174 -73 227 -44 284 32 61 98 121 209 187 256 154 288 175 275 184 -13 8
-1897 9 -2039 2z"/>
<path d="M26720 27006 c0 -2 31 -22 70 -45 144 -86 367 -287 410 -370 20 -40
20 -47 20 -2258 l0 -2218 -29 -60 c-16 -33 -41 -72 -57 -87 -35 -32 -222 -146
-389 -237 l-121 -66 1241 3 c1835 3 1848 4 1975 34 167 41 272 86 430 183 250
154 392 316 506 574 83 190 117 363 118 596 0 433 -129 752 -423 1043 -125
123 -318 251 -449 296 l-32 11 126 90 c200 142 337 305 454 540 111 225 153
407 154 660 0 210 -32 378 -107 562 -32 80 -191 307 -276 396 -147 153 -368
270 -626 330 -89 21 -107 21 -1542 24 -799 2 -1453 2 -1453 -1z m2752 -329
c120 -59 221 -210 273 -411 46 -181 58 -313 52 -591 -10 -410 -49 -594 -183
-872 -65 -132 -161 -245 -246 -287 l-52 -26 -573 0 -573 0 0 1110 0 1111 623
-3 622 -3 57 -28z m74 -2507 c190 -93 335 -485 375 -1016 24 -326 -41 -757
-147 -966 -37 -72 -124 -161 -187 -190 l-52 -23 -682 -3 -683 -3 0 1104 c0
607 3 1107 7 1110 3 4 303 7 667 7 644 0 661 0 702 -20z"/>
<path d="M40025 26917 c99 -51 206 -110 239 -131 81 -54 153 -127 176 -178 19
-42 20 -86 20 -2257 0 -1702 -3 -2223 -12 -2254 -28 -94 -174 -210 -423 -336
-77 -38 -147 -75 -155 -80 -10 -7 526 -11 1718 -11 l1732 0 0 402 c0 245 -4
398 -9 393 -5 -6 -37 -59 -71 -120 -110 -194 -192 -289 -300 -346 l-45 -24
-747 -3 -748 -2 0 2293 0 2293 26 52 c36 72 138 163 318 284 83 55 155 105
160 109 6 5 -448 9 -1025 9 l-1034 -1 180 -92z"/>
<path d="M2872 20410 c-131 -28 -295 -167 -357 -304 -112 -244 -81 -527 77
-712 57 -67 134 -129 194 -156 49 -23 50 -23 628 -25 l579 -1 56 -55 c68 -66
88 -77 141 -77 54 0 89 19 141 79 l44 49 152 3 c143 3 153 2 175 -18 57 -52
96 -55 176 -14 l57 29 17932 7 17931 7 69 -37 c80 -43 112 -42 175 4 l42 31
139 0 140 0 51 -54 c82 -87 140 -105 215 -66 21 10 58 41 81 67 l42 48 576 0
577 0 69 33 c100 47 209 160 264 273 55 112 77 242 63 358 -12 92 -50 216 -87
279 -44 75 -155 177 -240 218 -68 34 -86 39 -168 42 -51 2 -118 -1 -149 -8
-126 -26 -269 -123 -338 -231 -41 -64 -99 -231 -99 -285 0 -35 -4 -43 -22 -48
-30 -7 -38646 -8 -38659 -1 -5 4 -9 24 -9 47 0 59 -55 214 -102 286 -66 101
-158 172 -276 213 -65 23 -214 33 -280 19z m281 -190 c41 -21 86 -53 110 -81
55 -60 128 -190 134 -237 9 -64 -3 -67 -214 -67 -173 0 -186 -1 -200 -20 -14
-19 -12 -99 3 -114 9 -9 35434 -12 37746 -4 1114 5 2029 11 2033 15 12 12 16
92 6 108 -8 12 -47 16 -206 20 -208 5 -214 7 -215 56 0 19 9 38 86 181 37 67
88 111 176 153 54 26 75 30 145 30 143 0 218 -42 322 -180 48 -64 62 -91 75
-149 20 -88 20 -160 1 -236 -33 -126 -106 -217 -229 -285 l-71 -40 -556 0
-556 0 -24 26 c-43 47 -110 84 -152 84 -49 0 -71 -12 -128 -67 -43 -41 -53
-46 -120 -56 -44 -6 -110 -7 -162 -3 -80 7 -92 11 -124 39 -31 27 -44 32 -85
31 -39 0 -54 -6 -79 -30 l-30 -29 -17969 0 -17968 0 -26 28 c-21 22 -33 27
-75 27 -42 0 -56 -5 -87 -32 -37 -33 -38 -33 -156 -37 -156 -4 -194 6 -256 68
-60 60 -101 72 -167 47 -24 -10 -62 -35 -84 -57 l-40 -40 -563 1 -563 0 -79
48 c-43 26 -94 65 -113 87 -97 112 -135 276 -97 420 20 78 51 131 126 211 92
98 156 125 283 121 68 -2 90 -8 148 -37z"/>
<path d="M5590 16947 l0 -907 100 0 100 0 2 645 3 645 629 -680 c346 -374 631
-680 633 -680 1 0 3 407 3 905 l0 905 -100 0 -100 0 0 -651 c0 -358 -4 -649
-8 -647 -5 2 -282 302 -616 668 -335 366 -617 674 -627 685 -19 19 -19 1 -19
-888z"/>
<path d="M11417 17793 c-87 -195 -750 -1721 -754 -1735 -5 -16 5 -18 109 -18
l115 0 113 265 112 265 336 -2 335 -3 111 -262 111 -263 118 0 117 0 -14 33
c-53 124 -761 1737 -770 1755 -12 23 -13 22 -39 -35z m163 -728 c71 -165 128
-300 126 -302 -2 -2 -120 -2 -264 -1 l-261 3 131 303 c72 166 132 301 134 299
2 -2 62 -138 134 -302z"/>
<path d="M15467 17838 c-3 -7 -177 -407 -387 -888 -210 -481 -384 -883 -387
-892 -5 -16 5 -18 110 -18 l115 0 112 265 113 265 335 -2 336 -3 110 -262 111
-263 118 0 c65 0 116 3 114 8 -2 4 -179 408 -392 897 -214 490 -392 894 -395
898 -4 5 -10 2 -13 -5z m148 -784 c69 -158 123 -289 121 -291 -1 -2 -120 -2
-264 -1 l-260 3 131 303 c89 207 133 298 139 288 4 -8 64 -144 133 -302z"/>
<path d="M16790 16948 l0 -908 100 0 100 0 2 644 3 644 619 -669 c341 -368
626 -675 633 -681 11 -9 13 151 13 896 l0 907 -102 -3 -103 -3 -5 -647 -5
-646 -595 649 c-327 357 -610 666 -627 687 l-33 37 0 -907z"/>
<path d="M25025 16953 c-214 -492 -392 -899 -393 -904 -2 -6 44 -9 114 -7
l118 3 93 220 c51 121 102 239 113 263 l20 42 333 0 333 0 111 -262 111 -263
117 -3 c108 -2 116 -1 111 15 -12 35 -777 1778 -784 1784 -4 4 -182 -395 -397
-888z m528 115 c70 -161 127 -296 127 -300 0 -5 -117 -8 -260 -8 -143 0 -260
3 -260 8 0 14 253 592 260 592 3 0 63 -132 133 -292z"/>
<path d="M21750 17800 c-47 -10 -110 -27 -140 -39 -143 -54 -313 -187 -406
-317 -54 -76 -116 -206 -139 -294 -26 -100 -32 -326 -10 -431 45 -223 158
-404 336 -539 293 -220 679 -250 1012 -78 135 70 127 57 127 220 l0 140 -74
-69 c-89 -83 -175 -135 -281 -170 -71 -24 -96 -27 -215 -27 -122 0 -143 2
-215 28 -121 42 -181 80 -281 181 -99 99 -148 181 -178 300 -47 187 -20 408
69 566 119 211 358 349 604 349 197 -1 351 -63 509 -205 l62 -57 0 141 0 141
-77 45 c-211 124 -468 166 -703 115z"/>
<path d="M4620 16910 l0 -870 105 0 105 0 0 870 0 870 -105 0 -105 0 0 -870z"/>
<path d="M7810 16910 l0 -870 323 0 c550 1 684 35 878 229 72 72 94 102 133
181 70 143 88 224 93 420 4 128 1 185 -12 255 -48 257 -189 456 -396 560 -153
76 -299 95 -736 95 l-283 0 0 -870z m645 660 c122 -11 228 -39 292 -77 60 -35
158 -144 194 -215 56 -111 72 -194 72 -368 0 -126 -4 -170 -21 -233 -46 -168
-147 -304 -273 -366 -96 -47 -185 -60 -451 -68 l-238 -6 0 671 0 672 158 0
c86 0 207 -5 267 -10z"/>
<path d="M9920 16910 l0 -870 110 0 110 0 0 870 0 870 -110 0 -110 0 0 -870z"/>
<path d="M13470 16910 l0 -870 435 0 435 0 0 100 0 100 -325 0 -325 0 0 770 0
770 -110 0 -110 0 0 -870z"/>
<path d="M19010 16910 l0 -870 323 0 c462 0 586 21 751 124 158 99 278 270
328 471 31 121 33 407 5 528 -57 241 -193 424 -388 522 -153 76 -299 95 -736
95 l-283 0 0 -870z m645 660 c179 -17 277 -54 368 -138 107 -99 167 -235 189
-423 35 -309 -89 -600 -297 -699 -98 -47 -194 -61 -452 -67 l-233 -6 0 671 0
672 158 0 c86 0 207 -5 267 -10z"/>
<path d="M23220 16910 l0 -870 105 0 105 0 0 410 c0 345 2 410 14 410 8 0 155
-184 327 -410 l314 -410 139 0 138 0 -34 43 c-19 23 -166 206 -328 407 l-293
365 54 7 c188 26 269 58 334 129 97 108 130 288 85 464 -47 183 -160 290 -335
315 -38 5 -195 10 -347 10 l-278 0 0 -870z m500 679 c195 -24 264 -100 264
-290 0 -72 -4 -94 -27 -140 -15 -31 -41 -63 -60 -77 -53 -35 -154 -52 -319
-52 l-148 0 0 285 0 285 103 0 c56 0 141 -5 187 -11z"/>
<path d="M26730 16910 l0 -870 110 0 110 0 0 425 0 425 350 0 350 0 0 100 0
100 -350 0 -350 0 0 245 0 245 350 0 350 0 0 100 0 100 -460 0 -460 0 0 -870z"/>
<path d="M28120 17680 l0 -100 243 -2 242 -3 3 -767 2 -768 110 0 110 0 0 770
0 770 240 0 240 0 0 100 0 100 -595 0 -595 0 0 -100z"/>
<path d="M30600 16911 l0 -871 105 0 105 0 0 390 0 390 178 0 c261 0 356 25
455 119 92 87 137 203 137 353 0 108 -14 176 -52 251 -38 75 -94 136 -159 171
-98 54 -129 58 -461 63 l-308 5 0 -871z m572 644 c124 -38 183 -131 176 -280
-8 -194 -89 -248 -395 -262 l-143 -6 0 288 0 288 153 -6 c100 -3 171 -11 209
-22z"/>
<path d="M31940 17773 c1 -18 726 -1789 734 -1791 6 -2 735 1777 736 1796 0 1
-53 1 -117 0 l-117 -3 -243 -635 c-133 -349 -246 -644 -251 -654 -6 -15 -69
139 -259 635 l-252 654 -115 3 c-64 1 -116 -1 -116 -5z"/>
<path d="M33740 17680 l0 -100 245 0 245 0 0 -770 0 -770 110 0 110 0 0 770 0
770 245 0 245 0 0 100 0 100 -600 0 -600 0 0 -100z"/>
<path d="M36970 16910 l0 -870 435 0 435 0 0 100 0 100 -327 2 -328 3 -3 768
-2 767 -105 0 -105 0 0 -870z"/>
<path d="M38100 17680 l0 -100 245 0 245 0 0 -770 0 -770 110 0 110 0 0 770 0
770 245 0 245 0 0 100 0 100 -600 0 -600 0 0 -100z"/>
<path d="M39860 16910 l0 -870 323 0 c347 0 481 12 598 50 122 40 238 119 327
224 55 64 135 229 156 321 40 168 38 394 -4 560 -67 269 -270 480 -525 545
-112 29 -278 40 -592 40 l-283 0 0 -870z m649 659 c245 -23 383 -104 475 -279
62 -118 80 -203 80 -380 0 -131 -3 -167 -22 -235 -66 -230 -205 -369 -412
-410 -46 -9 -168 -18 -312 -22 l-238 -6 0 671 0 672 158 0 c86 0 208 -5 271
-11z"/>
<path d="M35265 16280 c-88 -58 -85 -199 6 -245 68 -36 162 -13 199 48 39 63
17 159 -45 197 -43 27 -120 27 -160 0z"/>
<path d="M41903 16280 c-123 -74 -68 -262 77 -262 56 0 87 16 124 66 26 35 27
112 2 151 -41 63 -138 85 -203 45z"/>
<path d="M6533 14591 c-22 -16 -49 -42 -61 -57 l-20 -29 -504 0 -503 0 -58
-27 c-75 -35 -181 -142 -225 -224 -81 -154 -82 -355 -2 -530 37 -83 139 -186
225 -229 82 -41 220 -48 324 -16 81 25 173 88 224 156 47 61 97 184 104 254 3
31 11 59 17 63 6 4 3517 8 7801 8 l7790 0 -61 -34 c-232 -125 -375 -294 -618
-735 -55 -98 -85 -140 -150 -205 -98 -99 -180 -163 -278 -215 -264 -141 -471
-94 -510 116 -32 178 130 303 323 249 106 -30 140 -1 101 87 -41 93 -160 177
-281 198 -127 23 -272 -33 -390 -151 -121 -119 -166 -242 -158 -425 6 -134 29
-206 99 -312 118 -176 310 -261 563 -249 213 9 368 71 528 208 l57 50 16 -38
c40 -97 113 -174 204 -218 60 -29 72 -31 165 -30 55 1 112 6 126 10 l27 9 -43
73 c-197 334 -144 795 129 1124 277 334 699 383 971 115 326 -324 166 -924
-266 -997 -239 -40 -399 79 -399 298 0 170 111 255 250 191 204 -94 321 -50
307 116 -8 110 -82 210 -195 267 -41 20 -61 23 -162 23 -107 0 -119 -2 -175
-29 -182 -89 -315 -335 -317 -591 -2 -187 41 -296 166 -420 87 -86 173 -139
281 -171 95 -29 265 -24 378 10 174 52 367 174 450 284 l42 55 20 -29 c34 -49
118 -129 182 -172 223 -151 472 -205 675 -146 178 53 343 201 409 369 21 54
24 75 24 215 0 148 -2 159 -32 243 -17 48 -46 113 -64 144 -47 80 -143 172
-214 208 -56 28 -67 30 -175 30 -107 0 -119 -2 -173 -29 -111 -56 -187 -170
-187 -279 0 -69 19 -111 60 -132 52 -27 147 -14 250 34 131 60 236 -11 248
-169 13 -186 -96 -313 -279 -327 -198 -14 -387 93 -482 274 -192 367 -8 795
383 887 378 90 759 -206 902 -699 20 -69 23 -102 23 -245 0 -142 -3 -176 -23
-243 -22 -77 -77 -197 -113 -249 -11 -14 -19 -28 -19 -31 0 -12 149 -29 204
-23 125 13 238 94 298 214 18 37 34 69 35 71 2 2 22 -14 45 -36 152 -139 326
-210 543 -220 148 -6 237 10 350 66 136 67 238 185 286 333 34 104 35 282 1
380 -62 178 -233 328 -410 359 -114 20 -243 -23 -330 -110 -82 -82 -105 -172
-48 -187 13 -3 51 2 85 12 128 36 256 -10 308 -110 34 -65 10 -208 -45 -270
-50 -56 -172 -80 -280 -55 -82 19 -243 104 -328 173 -139 111 -199 186 -298
366 -218 393 -365 565 -591 687 l-60 33 7821 0 c4302 0 7836 -3 7853 -6 28 -6
31 -10 31 -43 0 -52 26 -134 67 -214 65 -123 194 -215 334 -238 151 -25 280
21 391 139 72 76 101 130 129 240 58 227 -18 458 -194 591 -103 78 -81 76
-640 76 l-498 0 -32 37 c-90 103 -182 103 -265 -2 l-33 -40 -124 0 c-121 0
-126 1 -172 30 -26 16 -54 30 -62 30 -9 0 -43 -14 -76 -30 l-60 -30 -15596 0
-15597 0 -57 30 c-72 38 -101 38 -153 0 -41 -29 -44 -30 -162 -30 l-121 0 -42
46 c-75 83 -143 97 -214 45z m458 -210 c40 -5 66 -15 90 -35 28 -24 39 -27 78
-23 28 3 50 12 60 25 9 11 29 23 45 26 16 4 7053 4 15638 0 l15609 -7 25 -24
c37 -35 96 -32 141 7 33 30 35 30 153 30 65 0 129 -4 142 -9 13 -5 42 -27 64
-49 70 -70 148 -65 225 14 l33 34 477 0 478 0 68 -36 c88 -45 136 -93 176
-174 30 -61 32 -70 32 -180 0 -107 -2 -119 -28 -168 -15 -29 -58 -84 -95 -121
-76 -77 -130 -101 -232 -101 -68 0 -179 50 -226 101 -41 45 -112 167 -120 205
-11 57 8 64 174 64 193 0 192 0 192 60 0 40 -3 49 -22 56 -30 10 -32864 17
-33853 7 l-750 -8 -3 -51 -3 -52 35 -6 c20 -4 97 -6 171 -4 113 2 138 -1 151
-14 21 -21 12 -73 -21 -123 -14 -20 -34 -53 -45 -74 -23 -47 -74 -92 -143
-128 -44 -24 -64 -28 -132 -28 -110 0 -174 31 -252 123 -85 101 -98 135 -98
267 0 98 3 116 26 166 36 76 89 132 169 180 l66 39 483 0 483 0 45 -40 c83
-73 151 -74 220 -2 36 37 52 45 96 52 67 10 109 10 178 1z m16150 -471 c-128
-76 -184 -129 -301 -282 -15 -19 -18 -16 -80 63 -72 91 -159 166 -265 228
l-70 41 399 0 399 0 -82 -50z"/>
</g>
</svg>
